# xmcd
#
# Track frame offsets:
#	150
#	21072
#	32431
#	43493
#	54361
#	69514
#	84564
#	95959
#	105613
#	116255
#	129715
#	139091
#	153695
#	163815
#	175992
#	186681
#	199380
#	212014
#	223463
#	235677
#
# Disc length: 3324 seconds
#
# Revision: 0
# Processed by: cddbd v1.5.1PL0 Copyright (c) Steve Scherf et al.
# Submitted via: dBpowerAMP V4.0
#
DISCID=340cfa14
DTITLE=Hank Snow - The Masters
DYEAR=1997
DGENRE=Country
TTITLE0=El Paso
TTITLE1=Break My Mind
TTITLE2=Cryin' Time
TTITLE3=Snowbird
TTITLE4=City Of New Orleans
TTITLE5=It's Four In The Morning
TTITLE6=When It's Springtime In Alaska
TTITLE7=Six Days On The Road
TTITLE8=In The Misty Moonlight
TTITLE9=There Goes My Everything
TTITLE10=Mama Tried
TTITLE11=My Happiness
TTITLE12=Ribbon Of Darkness
TTITLE13=No One Will Ever Know
TTITLE14=She Wears My Ring
TTITLE15=Lonesome 7-7203
TTITLE16=You're The Reason
TTITLE17=Mansion On The Hill
TTITLE18=Why Me
TTITLE19=She Even Woke Me Up To Say Goodbye
EXTD=
EXTT0=
EXTT1=
EXTT2=
EXTT3=
EXTT4=
EXTT5=
EXTT6=
EXTT7=
EXTT8=
EXTT9=
EXTT10=
EXTT11=
EXTT12=
EXTT13=
EXTT14=
EXTT15=
EXTT16=
EXTT17=
EXTT18=
EXTT19=
PLAYORDER=
